<?xml version="1.0" encoding="UTF-8"?>
<svg id="Layer_1" data-name="Layer 1" xmlns="http://www.w3.org/2000/svg" viewBox="0 0 173.58 188.97">
  <defs>
    <style>
      .cls-1 {
        font-family: GoudyStout, 'Goudy Stout';
        font-size: 40px;
      }

      .cls-1, .cls-2 {
        fill: #008bcc;
      }

      .cls-1, .cls-2, .cls-3 {
        stroke: #000;
        stroke-miterlimit: 10;
      }

      .cls-3 {
        fill: #fff4c5;
      }
    </style>
  </defs>
  <polygon class="cls-3" points="33.61 188.47 33.61 142.72 37.48 142.72 37.48 136.55 48.47 136.55 48.47 126.75 59.61 126.75 59.61 119.4 68.06 119.4 68.06 109.13 71.14 109.13 71.14 99.7 73.75 99.7 73.75 93.17 77.07 93.17 77.07 82.5 77.62 82.5 77.62 78.79 79.85 74.2 80.24 74.2 80.24 73.65 81.4 73.65 86.79 .04 92.18 73.65 93.35 73.65 93.35 74.2 93.74 74.2 95.96 78.79 95.96 82.5 96.51 82.5 96.51 93.17 99.83 93.17 99.83 99.7 102.44 99.7 102.44 109.13 105.52 109.13 105.52 119.4 113.98 119.4 113.98 126.75 125.12 126.75 125.12 136.55 136.1 136.55 136.1 142.72 139.98 142.72 139.98 188.47 33.61 188.47"/>
  <path class="cls-2" d="M139.98,165.55c-1.25,1.18-3.18,2.77-5.8,4.19-5.49,2.97-11.97,4.04-12.58,2.73-.49-1.05,3.58-2.31,4.82-6.71,1.17-4.15-.11-8.59-.84-8.6-.56,0-.54,2.67-1.26,4.19-6.72,14.19-35.66,14.11-36.27,11.74-.2-.79,2.92-1.15,5.45-4.82,3.27-4.73,2.8-10.95,2.1-11.11-.42-.09-.7,2.05-2.52,4.4-2.46,3.19-5.93,4.38-8.07,5.08-1.39.46-26.14,8.5-26.94,6.04-.37-1.15,5.22-2.26,7.97-7.97,1.98-4.11,1.69-9.01.84-9.22-.61-.16-1.22,2.18-2.94,4.61-3.07,4.36-7.54,5.95-15.3,8.6-3.7,1.26-8.78,2.74-15.03,3.77v16h106.37v-22.92Z"/>
  <text class="cls-1" transform="translate(4 136.14)"><tspan x="0" y="0">RRR</tspan></text>
</svg>